<?xml version="1.0" standalone="no"?>
<!DOCTYPE svg PUBLIC "-//W3C//DTD SVG 20010904//EN"
 "http://www.w3.org/TR/2001/REC-SVG-20010904/DTD/svg10.dtd">
<svg version="1.0" xmlns="http://www.w3.org/2000/svg"
 width="4372.000000pt" height="1278.000000pt" viewBox="0 0 4372.000000 1278.000000"
 preserveAspectRatio="xMidYMid meet">

<g transform="translate(0.000000,1278.000000) scale(0.100000,-0.100000)"
fill="#000000" stroke="none">
<path d="M6125 12769 c-1707 -65 -3331 -831 -4483 -2114 -1666 -1854 -2101
-4483 -1122 -6775 737 -1726 2246 -3072 4040 -3603 2007 -595 4152 -183 5785
1111 262 208 576 503 785 737 404 453 713 909 980 1450 287 581 467 1138 574
1780 124 740 110 1545 -40 2295 -360 1803 -1503 3380 -3114 4295 -776 441
-1629 712 -2521 800 -133 13 -623 38 -669 33 -8 0 -105 -5 -215 -9z m545 -559
c394 -21 744 -73 1119 -166 841 -208 1644 -614 2311 -1169 663 -551 1217
-1268 1565 -2025 285 -619 450 -1225 522 -1920 24 -236 24 -827 0 -1070 -85
-840 -319 -1594 -719 -2310 -262 -469 -574 -877 -972 -1275 -453 -452 -915
-788 -1478 -1075 -653 -332 -1304 -523 -2073 -607 -227 -25 -891 -25 -1120 0
-980 107 -1831 407 -2620 924 -810 532 -1456 1229 -1927 2081 -485 876 -743
1932 -714 2925 25 884 218 1672 597 2437 299 605 665 1110 1155 1590 602 590
1298 1031 2084 1318 716 261 1514 381 2270 342z"/>
<path d="M5995 11839 c-955 -73 -1852 -380 -2635 -902 -314 -210 -543 -399
-831 -687 -453 -453 -767 -890 -1044 -1455 -312 -637 -491 -1297 -544 -2010
-14 -178 -14 -599 -1 -775 26 -350 90 -723 181 -1062 l10 -38 612 1 c337 1
719 4 851 8 l238 6 815 1590 c448 875 893 1745 990 1935 176 343 177 345 258
426 122 123 250 177 420 177 182 0 356 -87 464 -230 28 -38 354 -665 845
-1623 439 -858 801 -1562 805 -1564 3 -2 366 700 806 1560 483 944 818 1589
846 1627 75 100 186 174 324 213 54 16 143 18 903 23 l843 6 -89 145 c-251
412 -467 687 -821 1041 -457 456 -873 756 -1436 1034 -603 298 -1189 467
-1870 540 -178 20 -759 28 -940 14z"/>
<path d="M8936 5958 c-539 -1052 -994 -1936 -1013 -1965 -76 -116 -235 -224
-371 -252 -246 -51 -505 66 -633 285 -25 44 -396 764 -824 1602 -429 837 -781
1522 -784 1522 -4 0 -285 -546 -626 -1212 -1098 -2145 -990 -1940 -1060 -2016
-69 -75 -157 -131 -255 -165 -65 -22 -70 -22 -908 -27 l-843 -5 79 -130 c492
-818 1173 -1485 1992 -1951 1436 -816 3184 -937 4720 -324 538 214 1033 512
1505 904 156 130 513 487 644 645 435 522 764 1098 978 1711 292 832 376 1705
252 2590 -24 168 -77 439 -117 590 l-27 105 -865 3 -865 2 -979 -1912z m-3491
-243 c283 -72 478 -358 436 -640 -15 -105 -43 -179 -97 -258 -169 -247 -491
-328 -758 -190 -95 50 -200 154 -249 250 -172 331 8 739 369 838 68 18 227 18
299 0z"/>
<path d="M28692 11720 c-102 -22 -193 -96 -240 -199 -38 -80 -38 -202 -1 -281
38 -80 99 -144 174 -181 61 -30 69 -31 157 -27 79 3 101 8 146 33 64 35 121
95 159 167 25 47 28 64 28 148 0 81 -4 102 -25 145 -32 66 -108 141 -173 170
-59 27 -160 38 -225 25z"/>
<path d="M34382 11720 c-99 -21 -195 -99 -243 -198 -19 -38 -23 -64 -23 -137
-1 -82 2 -96 31 -156 39 -79 102 -141 180 -176 49 -23 64 -25 146 -21 70 3
102 10 136 27 59 31 133 107 168 172 25 48 28 64 28 149 0 81 -4 103 -25 145
-32 66 -108 141 -173 170 -59 27 -160 38 -225 25z"/>
<path d="M21590 11275 l0 -355 395 0 395 0 0 -806 0 -806 -85 80 c-283 268
-561 430 -880 512 -525 135 -1095 40 -1545 -257 -608 -402 -903 -925 -951
-1689 -32 -503 74 -996 289 -1342 204 -329 549 -613 927 -765 268 -108 480
-147 785 -147 327 1 561 52 835 185 199 97 356 209 534 382 46 46 86 83 88 83
2 0 3 -133 3 -295 l0 -295 765 0 765 0 0 360 0 360 -365 0 -365 0 0 2575 0
2575 -795 0 -795 0 0 -355z m-229 -2089 c378 -87 725 -347 877 -657 133 -272
175 -646 112 -1013 -51 -297 -160 -510 -369 -716 -215 -213 -437 -331 -710
-376 -124 -20 -372 -15 -486 10 -252 56 -457 168 -641 351 -116 114 -166 185
-235 329 -85 178 -125 360 -136 606 -15 373 70 691 256 950 221 309 510 492
853 540 114 16 360 4 479 -24z"/>
<path d="M16605 9953 c-622 -54 -1099 -313 -1402 -760 -89 -132 -116 -182
-101 -188 7 -2 179 -48 383 -101 354 -93 370 -96 382 -78 80 115 148 196 207
245 199 165 476 240 786 211 163 -16 261 -41 376 -98 169 -83 304 -221 344
-352 40 -128 50 -239 50 -559 0 -167 -2 -303 -4 -303 -2 0 -33 18 -68 39 -645
392 -1435 397 -1971 14 -365 -262 -549 -607 -548 -1033 0 -228 39 -399 132
-580 64 -124 127 -207 244 -318 213 -204 472 -331 770 -379 138 -22 429 -13
570 17 323 69 595 210 875 454 l75 65 5 -242 5 -242 700 0 700 0 0 355 0 355
-342 3 -342 2 -4 1128 c-4 1170 -6 1226 -48 1437 -39 192 -141 386 -275 519
-202 203 -562 346 -968 385 -100 10 -435 12 -531 4z m253 -2293 c236 -48 461
-151 695 -318 l77 -55 0 -243 0 -242 -52 -47 c-246 -221 -548 -375 -826 -420
-127 -21 -363 -16 -457 9 -228 62 -410 242 -471 466 -23 87 -24 272 -1 357 27
102 81 196 158 278 132 138 276 208 494 239 66 10 288 -4 383 -24z"/>
<path d="M37025 9948 c-430 -48 -850 -258 -1161 -580 -339 -350 -549 -826
-595 -1348 -14 -159 -7 -427 16 -580 122 -826 667 -1490 1407 -1714 199 -60
342 -80 588 -80 157 -1 245 4 325 17 423 67 785 249 1086 547 140 139 222 243
317 400 154 254 241 492 295 800 18 107 21 163 21 395 0 292 -12 399 -69 619
-97 371 -304 730 -573 987 -317 305 -708 488 -1147 539 -107 12 -397 11 -510
-2z m534 -414 c619 -107 1082 -561 1251 -1229 79 -309 80 -687 4 -995 -82
-331 -227 -595 -448 -815 -227 -226 -466 -354 -779 -417 -160 -32 -444 -32
-597 1 -315 67 -534 185 -761 411 -194 193 -321 400 -409 668 -231 705 -53
1530 430 1986 243 229 552 372 873 405 115 12 322 5 436 -15z"/>
<path d="M31550 9904 c-443 -56 -798 -284 -977 -629 -87 -169 -120 -334 -109
-555 27 -604 324 -830 1386 -1055 415 -88 747 -186 904 -268 145 -75 237 -199
272 -367 24 -111 14 -291 -20 -388 -100 -286 -395 -495 -801 -568 -124 -22
-451 -25 -565 -6 -297 52 -519 160 -700 342 -190 189 -277 391 -305 703 l-7
67 -194 0 -194 0 0 -710 0 -710 195 0 195 0 0 255 c0 146 4 255 9 255 5 0 33
-30 62 -67 211 -271 521 -434 914 -484 125 -16 449 -16 575 0 411 51 726 187
951 410 212 212 309 453 309 770 0 301 -72 519 -223 678 -189 199 -569 356
-1157 478 -456 94 -806 190 -956 261 -111 52 -193 159 -229 299 -22 85 -20
253 4 347 51 198 206 392 383 477 340 164 831 124 1153 -92 79 -53 206 -176
261 -253 96 -134 175 -347 190 -511 l7 -73 188 0 189 0 0 670 0 670 -190 0
-190 0 0 -235 c0 -129 -4 -235 -9 -235 -4 0 -37 34 -72 77 -183 219 -430 363
-729 425 -70 14 -145 20 -290 23 -107 2 -211 1 -230 -1z"/>
<path d="M41739 9895 c-208 -34 -393 -96 -625 -210 -180 -89 -425 -245 -594
-379 l-95 -75 -3 309 -2 310 -605 0 -605 0 0 -195 0 -195 380 0 380 0 0 -1655
0 -1655 -380 0 -380 0 0 -195 0 -195 935 0 935 0 0 195 0 195 -330 0 -330 0 0
1313 0 1313 90 77 c507 439 1101 693 1512 647 276 -31 461 -177 541 -425 47
-145 47 -145 47 -1576 l0 -1349 -360 0 -360 0 0 -195 0 -195 915 0 915 0 0
195 0 195 -327 2 -328 3 -5 1455 -5 1455 -26 95 c-107 385 -375 633 -784 725
-99 23 -395 28 -506 10z"/>
<path d="M27313 9853 l-643 -3 0 -195 0 -195 280 0 c154 0 280 -2 280 -4 0 -2
-209 -572 -464 -1267 -489 -1334 -528 -1443 -631 -1805 -36 -125 -67 -230 -70
-232 -6 -6 -10 6 -39 123 -79 316 -130 461 -710 2015 l-434 1165 279 3 279 2
0 195 0 195 -845 0 -845 0 0 -195 0 -195 336 -2 337 -3 720 -1877 721 -1878
207 0 207 0 10 28 c5 15 312 848 682 1852 370 1004 677 1837 682 1853 l10 27
504 0 504 0 0 -1655 0 -1655 -360 0 -360 0 0 -195 0 -195 935 0 935 0 0 195 0
195 -347 2 -348 3 -3 1848 -2 1847 -328 0 c-181 0 -443 2 -583 3 -140 2 -543
2 -896 0z"/>
<path d="M33640 9655 l0 -195 360 0 360 0 0 -1655 0 -1655 -360 0 -360 0 0
-195 0 -195 935 0 935 0 0 195 0 195 -350 0 -350 0 0 1850 0 1850 -585 0 -585
0 0 -195z"/>
<path d="M28712 4548 c3 -53 3 -53 38 -55 84 -6 188 -27 222 -44 29 -15 40
-29 50 -62 10 -33 13 -282 13 -1192 0 -1301 6 -1208 -77 -1245 -35 -15 -181
-40 -235 -40 -9 0 -13 -18 -13 -55 l0 -55 505 0 505 0 0 54 0 54 -62 7 c-108
11 -170 24 -202 43 -64 37 -61 -32 -64 1370 l-3 1272 -340 0 -340 0 3 -52z"/>
<path d="M31518 4433 l-548 -3 0 -55 c0 -61 -8 -56 124 -70 32 -4 80 -13 107
-21 62 -19 76 -44 89 -166 13 -123 13 -1883 0 -2006 -11 -103 -27 -143 -63
-159 -28 -13 -114 -29 -199 -38 l-58 -6 0 -55 0 -55 723 4 c783 4 781 4 969
63 175 55 319 143 448 273 183 184 291 404 346 706 26 141 26 509 1 644 -74
388 -259 652 -567 808 -180 92 -468 147 -730 141 -52 -2 -341 -4 -642 -5z
m762 -148 c132 -24 239 -59 345 -113 72 -37 108 -64 181 -137 83 -82 97 -102
147 -205 30 -63 64 -151 76 -195 85 -329 75 -805 -23 -1098 -109 -324 -324
-521 -644 -590 -77 -16 -133 -21 -277 -21 -189 -1 -268 10 -338 46 -77 39 -72
-43 -75 1217 l-3 1124 258 -6 c180 -3 287 -10 353 -22z"/>
<path d="M26670 4375 c0 -62 -18 -52 144 -74 44 -6 93 -19 110 -29 64 -37 61
26 64 -1121 2 -683 -1 -1063 -8 -1099 -17 -92 -48 -111 -210 -132 -46 -5 -88
-10 -92 -10 -5 0 -8 -25 -8 -55 l0 -55 945 0 945 0 0 240 0 240 -98 0 -98 0
-11 -114 c-12 -119 -29 -168 -64 -186 -56 -30 -707 -38 -804 -10 -46 14 -71
33 -94 75 -14 27 -16 89 -19 538 l-3 507 303 0 c183 0 318 -4 341 -11 46 -12
61 -42 72 -136 l7 -63 69 0 69 0 0 285 0 285 -69 0 -69 0 -7 -67 c-10 -97 -26
-129 -65 -137 -18 -3 -171 -6 -341 -6 l-309 0 0 526 0 527 408 -6 c224 -3 417
-9 429 -12 27 -9 39 -58 49 -203 l7 -102 98 0 99 0 0 230 0 230 -895 0 -895 0
0 -55z"/>
<path d="M34240 4255 l0 -175 175 0 175 0 0 175 0 175 -175 0 -175 0 0 -175z"/>
<path d="M41077 4383 c-4 -3 -7 -73 -7 -155 l0 -148 155 0 155 0 0 155 0 155
-148 0 c-82 0 -152 -3 -155 -7z"/>
<path d="M41770 4235 l0 -155 155 0 155 0 0 155 0 155 -155 0 -155 0 0 -155z"/>
<path d="M35709 3750 c-96 -17 -320 -85 -411 -124 l-38 -16 0 -175 0 -175 119
0 120 0 6 48 c22 156 60 221 161 274 168 88 352 72 457 -41 80 -86 106 -196
107 -447 l0 -151 -182 -6 c-270 -9 -439 -42 -593 -117 -214 -103 -335 -291
-335 -517 1 -256 170 -469 421 -528 227 -53 463 22 697 225 l70 60 17 -52 c38
-117 113 -202 205 -233 63 -21 193 -17 278 10 57 17 59 24 46 106 l-6 36 -74
-5 -74 -5 -39 39 c-74 75 -74 70 -81 764 -6 539 -8 622 -23 674 -53 182 -173
299 -362 351 -96 27 -353 29 -486 5z m521 -1283 l0 -363 -52 -31 c-87 -53
-182 -92 -250 -102 -224 -36 -420 120 -435 347 -9 136 27 243 110 330 120 125
272 180 505 181 l122 1 0 -363z"/>
<path d="M39848 3750 c-105 -19 -315 -82 -403 -121 l-45 -20 0 -174 0 -175
118 0 118 0 12 78 c17 108 54 178 119 223 77 53 151 74 258 74 111 -1 175 -26
236 -92 78 -85 99 -164 106 -409 l6 -191 -184 -6 c-380 -12 -616 -85 -770
-238 -167 -168 -208 -428 -102 -649 33 -68 148 -185 220 -223 74 -40 192 -67
288 -67 192 0 367 80 582 265 l42 36 7 -28 c15 -61 64 -153 102 -191 77 -77
202 -101 350 -67 95 22 95 22 87 92 l-7 60 -67 -5 c-80 -5 -119 10 -149 60
-44 72 -45 87 -52 728 -7 674 -6 665 -70 796 -53 109 -172 199 -316 239 -95
27 -352 29 -486 5z m522 -1283 l0 -363 -74 -43 c-143 -82 -246 -108 -355 -90
-120 19 -225 100 -279 217 -24 51 -27 68 -27 172 0 111 1 118 33 183 92 187
290 284 580 286 l122 1 0 -363z"/>
<path d="M43380 3755 c-30 -8 -92 -33 -138 -56 -95 -46 -210 -152 -283 -259
l-44 -65 -3 178 -2 177 -335 0 -335 0 0 -54 0 -53 93 -12 c169 -22 200 -40
217 -130 6 -33 10 -311 10 -716 0 -405 -4 -683 -10 -716 -17 -89 -49 -109
-210 -129 -46 -5 -88 -10 -92 -10 -5 0 -8 -25 -8 -55 l0 -55 525 0 525 0 0 54
0 53 -92 7 c-163 13 -231 33 -254 77 -26 51 -34 209 -34 713 l0 498 45 63 c24
35 66 82 92 105 124 111 345 155 381 76 5 -13 16 -66 23 -120 l12 -96 99 0 98
0 0 259 c0 197 -3 262 -12 268 -24 15 -211 13 -268 -2z"/>
<path d="M33910 3676 l0 -54 68 -6 c163 -16 222 -38 243 -88 18 -44 26 -1985
9 -2117 -24 -181 -84 -240 -242 -241 -90 0 -121 10 -166 53 -42 40 -60 101
-68 233 l-7 104 -99 0 -98 0 2 -217 3 -216 64 -18 c126 -36 257 -52 375 -46
335 16 525 192 581 542 12 75 15 263 15 1108 l0 1017 -340 0 -340 0 0 -54z"/>
<path d="M37210 3520 l0 -210 89 0 88 0 7 38 c3 20 6 72 6 115 0 82 15 128 47
143 19 9 923 19 923 10 0 -3 -272 -386 -605 -852 l-605 -847 0 -58 0 -59 835
0 835 0 0 225 0 226 -92 -3 -93 -3 -6 -117 c-7 -134 -18 -161 -76 -179 -36
-11 -866 -26 -952 -17 l-33 3 601 840 601 840 0 57 0 58 -785 0 -785 0 0 -210z"/>
<path d="M41120 3677 l0 -54 93 -11 c163 -21 195 -37 218 -109 9 -28 14 -203
16 -660 5 -767 -1 -854 -67 -888 -27 -14 -110 -31 -202 -40 l-58 -6 0 -55 0
-54 503 2 502 3 3 53 c2 38 0 52 -10 52 -8 0 -52 5 -98 10 -161 20 -193 40
-210 129 -6 34 -10 361 -10 867 l0 814 -340 0 -340 0 0 -53z"/>
</g>
</svg>
