<svg xmlns="http://www.w3.org/2000/svg" width="4372" height="1278" viewBox="0 0 4372 1278" version="1.1"><path d="M 2159 150 L 2159 186 2198 186 L 2237 186 2237 265.579 L 2237 345.157 2226.250 335.407 C 2193.902 306.070, 2163.102 290.339, 2125.757 284.082 C 2101.837 280.075, 2077.940 280.532, 2053.581 285.464 C 2021.275 292.006, 1989.764 308, 1961.500 332.205 C 1922.169 365.886, 1900.768 406.652, 1892.837 463 C 1890.749 477.833, 1891.081 524.340, 1893.383 539.500 C 1898.021 570.051, 1907.893 597.902, 1921.739 619.500 C 1942.161 651.355, 1977.634 679.821, 2015.709 694.906 C 2058.884 712.013, 2110.524 713.537, 2154.211 698.993 C 2180.978 690.083, 2204.045 675.718, 2226.250 654.133 L 2237 643.683 2237 672.842 L 2237 702 2314.500 702 L 2392 702 2392 666 L 2392 630 2355.500 630 L 2319 630 2319 372 L 2319 114 2239 114 L 2159 114 2159 150 M 266.500 120.459 C 264.850 121.697, 259.974 125.362, 255.665 128.604 C 251.356 131.847, 246.406 135.541, 244.665 136.814 C 242.924 138.086, 240.170 140.336, 238.545 141.814 C 236.920 143.291, 234.622 145.175, 233.440 146 C 223.888 152.664, 193.471 180.970, 175.686 199.746 C 162.357 213.819, 140.818 238.760, 137.030 244.508 C 136.189 245.785, 133.866 248.781, 131.868 251.165 C 126.804 257.210, 97 300.250, 97 301.519 C 97 301.722, 94.530 305.851, 91.512 310.694 C 88.493 315.537, 85.343 320.850, 84.512 322.500 C 83.680 324.150, 81.826 327.525, 80.392 330 C 77.402 335.159, 59.741 370.291, 55.257 380 C 52.671 385.599, 50.402 390.955, 46.996 399.500 C 46.558 400.600, 45.254 403.633, 44.100 406.239 C 42.945 408.846, 42 411.478, 42 412.088 C 42 412.698, 41.351 414.616, 40.558 416.349 C 39.765 418.082, 38.233 422.200, 37.154 425.500 C 36.075 428.800, 34.494 433.125, 33.641 435.111 C 32.788 437.096, 31.887 439.838, 31.640 441.203 C 31.392 442.568, 30.252 446.569, 29.105 450.093 C 25.945 459.808, 23.032 470.365, 23.408 470.741 C 23.939 471.272, 49.275 451.323, 63 439.568 C 69.875 433.679, 82.796 421.899, 91.714 413.389 L 107.928 397.916 115.399 382.708 C 119.508 374.344, 123.898 365.700, 125.154 363.500 C 126.411 361.300, 130.777 353.650, 134.856 346.500 C 146.313 326.422, 166.206 297.168, 180.473 279.419 C 197.156 258.662, 203.389 251.645, 223.477 231 C 233.378 220.825, 238.882 214.973, 235.709 217.995 L 229.940 223.491 237.830 205.995 C 242.169 196.373, 248.651 180.850, 252.235 171.500 C 259.428 152.733, 270.288 120.303, 269.807 119.025 C 269.638 118.577, 268.150 119.222, 266.500 120.459 M 1667 281.684 C 1606.506 285.135, 1557.019 309.099, 1525.822 350.047 C 1515.688 363.350, 1507.133 378, 1509.501 378 C 1509.990 378, 1580.861 396.586, 1584.174 397.583 C 1585.390 397.949, 1587.052 396.228, 1590.254 391.293 C 1608.237 363.567, 1635.742 350.008, 1674 350.008 C 1704.152 350.008, 1726.131 357.631, 1743.473 374.104 C 1759.366 389.201, 1762.990 404.351, 1762.997 455.738 L 1763 480.975 1757.359 477.367 C 1748.245 471.536, 1724.359 460.396, 1712.756 456.563 C 1706.847 454.611, 1696.272 451.793, 1689.256 450.300 C 1677.494 447.797, 1674.669 447.582, 1653 447.543 C 1626.317 447.495, 1615.890 448.991, 1596.772 455.607 C 1574.739 463.233, 1555.975 475.055, 1539.012 492 C 1520.862 510.129, 1510.673 528.656, 1505.352 553.204 C 1502.799 564.983, 1502.818 594.090, 1505.388 606 C 1507.797 617.168, 1512.914 631.366, 1517.459 639.494 C 1529.646 661.285, 1551.725 681.795, 1576.295 694.149 C 1618.305 715.270, 1673.682 713.589, 1720.288 689.776 C 1736.178 681.658, 1758.146 666.032, 1766.924 656.604 C 1768.258 655.172, 1769.720 654, 1770.174 654 C 1770.628 654, 1771 664.800, 1771 678 L 1771 702 1841.500 702 L 1912 702 1912 666 L 1912 630 1877.550 630 L 1843.099 630 1842.730 513.250 C 1842.332 387.639, 1842.319 387.287, 1836.978 366.682 C 1831.181 344.322, 1815.397 322.055, 1796.130 309.059 C 1766.174 288.854, 1718.495 278.746, 1667 281.684 M 2080.231 359.089 C 2050.285 365.377, 2025.783 381.459, 2005.995 407.813 C 1993.670 424.228, 1985.367 442.577, 1980.795 463.500 C 1978.223 475.269, 1977.208 507.648, 1978.970 521.722 C 1982.808 552.383, 1993.444 576.660, 2011.345 595.624 C 2034.507 620.161, 2060.690 632.864, 2094.771 636.100 C 2133.164 639.745, 2170.064 625.864, 2199.148 596.837 C 2216.742 579.278, 2228.077 557.379, 2234.004 529.500 C 2236.751 516.580, 2237.814 486.187, 2236.050 471.013 C 2233.405 448.257, 2225.323 425.614, 2214.364 410.258 C 2196.482 385.198, 2161.858 364.233, 2129.074 358.615 C 2115.692 356.322, 2092.326 356.549, 2080.231 359.089 M 1643 510.627 C 1616.790 515.718, 1596.815 529.680, 1587.340 549.535 C 1577.931 569.248, 1579.072 595.045, 1590.179 613.766 C 1606.028 640.481, 1639.313 651.292, 1680.112 642.977 C 1706.956 637.507, 1735.613 622.219, 1758.370 601.229 L 1763 596.959 1763 573.477 L 1763 549.996 1756.826 545.451 C 1741.296 534.018, 1720.904 523.119, 1704.630 517.552 C 1689.511 512.381, 1680.668 510.903, 1662.500 510.510 C 1653.150 510.307, 1644.375 510.360, 1643 510.627 M 2871 822.902 L 2871 828.804 2877.250 829.466 C 2887.656 830.568, 2894.691 832.134, 2897.841 834.049 C 2903.555 837.524, 2903.500 836.318, 2903.500 958 C 2903.500 1073.567, 2903.428 1075.644, 2899.261 1080.260 C 2897.022 1082.740, 2888.979 1084.913, 2879.282 1085.658 L 2871 1086.295 2871 1092.148 L 2871 1098 2921.500 1098 L 2972 1098 2972 1092.148 L 2972 1086.295 2963.718 1085.658 C 2953.932 1084.906, 2945.976 1082.736, 2943.672 1080.190 C 2942.762 1079.184, 2941.563 1075.968, 2941.008 1073.044 C 2940.364 1069.647, 2940 1022.449, 2940 942.364 L 2940 817 2905.500 817 L 2871 817 2871 822.902 M 3141.200 834.702 L 3095.901 835.020 3096.200 840.752 L 3096.500 846.483 3106.500 847.713 C 3112 848.390, 3118.458 849.686, 3120.852 850.593 C 3129.043 853.699, 3128.500 845.477, 3128.500 966.500 C 3128.500 1065.410, 3128.370 1073.786, 3126.786 1077.286 C 3124.592 1082.133, 3120.977 1083.663, 3108.288 1085.117 C 3102.904 1085.733, 3097.938 1086.395, 3097.250 1086.587 C 3096.443 1086.813, 3096 1088.897, 3096 1092.469 L 3096 1098 3166.250 1097.994 C 3242.255 1097.988, 3247.580 1097.689, 3264.665 1092.478 C 3295.988 1082.924, 3320.696 1061.266, 3334.933 1030.883 C 3353.208 991.885, 3353.190 930.462, 3334.893 893.610 C 3319.800 863.210, 3293.996 844.587, 3256.300 836.885 C 3244.125 834.397, 3227.974 834.091, 3141.200 834.702 M 2666 841 L 2666 847 2669.750 847.008 C 2681.566 847.031, 2694.093 850.715, 2695.909 854.699 C 2698.727 860.883, 2699.080 875.524, 2698.753 972.500 C 2698.408 1074.761, 2698.337 1076.520, 2694.416 1080.441 C 2692.138 1082.720, 2683.543 1084.947, 2674.282 1085.658 L 2666 1086.295 2666 1092.148 L 2666 1098 2761 1098 L 2856 1098 2856 1073.500 L 2856 1049 2846.117 1049 C 2834.920 1049, 2835.041 1048.901, 2835.014 1058.114 C 2834.998 1063.501, 2833.472 1072.324, 2831.878 1076.243 C 2829.926 1081.044, 2826.196 1081.480, 2787 1081.491 C 2754.904 1081.499, 2751.042 1081.323, 2746.729 1079.659 C 2737.574 1076.127, 2737.017 1072.378, 2737.008 1014.175 L 2737 968.849 2768.250 969.175 C 2804.340 969.550, 2804.750 969.634, 2806.670 977.008 C 2807.313 979.479, 2807.875 983.638, 2807.920 986.250 L 2808 991 2816 991 L 2824 991 2824 961.500 L 2824 932 2816 932 L 2808 932 2808 936.451 C 2808 943.887, 2806.082 950.878, 2803.665 952.249 C 2802.116 953.128, 2792.328 953.578, 2769.250 953.832 L 2737 954.187 2737 902.093 L 2737 850 2774.250 850.009 C 2794.738 850.013, 2813.848 850.299, 2816.717 850.644 C 2821.464 851.214, 2822.022 851.552, 2822.909 854.385 C 2823.445 856.098, 2824.149 860.650, 2824.472 864.500 C 2824.795 868.350, 2825.306 873.878, 2825.606 876.784 L 2826.152 882.068 2836.326 881.784 L 2846.500 881.500 2846.768 858.250 L 2847.037 835 2756.518 835 L 2666 835 2666 841 M 3424 853 L 3424 871 3442 871 L 3460 871 3460 853 L 3460 835 3442 835 L 3424 835 3424 853 M 4107 855.025 L 4107 871.051 4122.750 870.775 L 4138.500 870.500 4138.775 854.750 L 4139.051 839 4123.025 839 L 4107 839 4107 855.025 M 4177 855 L 4177 871 4192.500 871 L 4208 871 4208 855 L 4208 839 4192.500 839 L 4177 839 4177 855 M 3167.268 958.250 C 3167.675 1076.684, 3167.597 1074.965, 3172.787 1079.047 C 3178.468 1083.515, 3185.011 1084.504, 3208.500 1084.442 C 3229.133 1084.388, 3231.118 1084.217, 3240.448 1081.699 C 3276.813 1071.886, 3297.507 1046.524, 3305.476 1002 C 3307.751 989.291, 3308.625 956.673, 3307.084 941.961 C 3301.805 891.536, 3282.443 864.913, 3242.811 853.584 C 3227.907 849.324, 3215.405 848, 3190.066 848 L 3166.888 848 3167.268 958.250 M 3583.500 900.631 C 3567.908 902.327, 3552.075 906.284, 3535.503 912.627 L 3526 916.264 3526 934.632 L 3526 953 3538.362 953 L 3550.724 953 3551.395 946.449 C 3552.199 938.605, 3555.227 930.073, 3558.651 926.003 C 3560.024 924.371, 3564.577 921.341, 3568.770 919.268 C 3576.196 915.598, 3576.679 915.500, 3587.447 915.500 C 3597.581 915.500, 3598.984 915.738, 3604.318 918.357 C 3611.153 921.713, 3615.827 927.443, 3619.119 936.500 C 3621.011 941.706, 3621.360 945.160, 3621.750 962.594 L 3622.200 982.689 3606.350 983.380 C 3577.896 984.620, 3560.286 988.140, 3545 995.643 C 3537.391 999.377, 3533.988 1001.818, 3527.905 1007.903 C 3515.945 1019.865, 3511.710 1030.510, 3511.753 1048.500 C 3511.792 1064.581, 3516.340 1075.438, 3527.758 1086.707 C 3545.804 1104.519, 3574.749 1107.718, 3600.500 1094.748 C 3608.109 1090.916, 3615.742 1085.681, 3623.973 1078.650 L 3630.447 1073.120 3632.535 1078.887 C 3636.490 1089.810, 3641.952 1096.282, 3650.500 1100.174 C 3654.611 1102.045, 3657.101 1102.429, 3664.500 1102.333 C 3675.509 1102.189, 3686.543 1099.371, 3686.417 1096.735 C 3686.371 1095.781, 3686.258 1092.516, 3686.167 1089.481 C 3686 1083.969, 3685.997 1083.963, 3683.250 1084.717 C 3681.738 1085.132, 3678.221 1085.456, 3675.436 1085.437 C 3665.127 1085.365, 3660.851 1078.549, 3659.023 1059.272 C 3658.461 1053.348, 3657.993 1025.775, 3657.983 998 C 3657.964 943.267, 3657.666 939.512, 3652.477 928.543 C 3651.012 925.446, 3647.321 920.221, 3644.275 916.931 C 3637.847 909.987, 3628.137 904.778, 3617.315 902.468 C 3610.219 900.952, 3590.430 899.878, 3583.500 900.631 M 3993.609 900.992 C 3979.935 902.718, 3963.993 906.954, 3947.750 913.176 L 3940 916.145 3940 934.603 L 3940 953.062 3952.250 952.781 L 3964.500 952.500 3965.099 947 C 3966.044 938.315, 3968.790 930.309, 3972.125 926.511 C 3973.814 924.586, 3978.616 921.322, 3982.796 919.256 C 3990.195 915.600, 3990.690 915.500, 4001.448 915.500 C 4013.954 915.500, 4018.823 917.077, 4024.836 923.077 C 4033.105 931.328, 4035.958 942.337, 4035.983 966.099 L 4036 982.698 4020.250 983.394 C 3980.278 985.163, 3959.104 991.532, 3943.076 1006.610 C 3931.705 1017.308, 3926.692 1027.891, 3925.417 1043.893 C 3923.182 1071.937, 3942.581 1096.486, 3971.028 1101.611 C 3985.508 1104.220, 3999.147 1102.090, 4013.758 1094.938 C 4022.191 1090.809, 4035.165 1081.646, 4040.437 1076.093 C 4042.052 1074.392, 4043.704 1073, 4044.108 1073 C 4044.511 1073, 4045.158 1074.463, 4045.545 1076.250 C 4047.836 1086.834, 4057.776 1098.515, 4066.697 1101.105 C 4073.021 1102.942, 4085.859 1102.563, 4093.935 1100.302 L 4100.370 1098.500 4100.114 1092 C 4099.974 1088.425, 4099.539 1085.171, 4099.149 1084.770 C 4098.759 1084.368, 4096.703 1084.519, 4094.581 1085.105 C 4090.213 1086.311, 4084.625 1085.577, 4081.156 1083.341 C 4077.560 1081.024, 4074.280 1072.560, 4073.080 1062.500 C 4072.445 1057.183, 4071.997 1032.016, 4071.985 1001 C 4071.963 942.540, 4071.741 940.018, 4065.504 927.342 C 4059.294 914.723, 4047.465 906.211, 4031.039 902.545 C 4022.157 900.563, 4003.232 899.778, 3993.609 900.992 M 4342.322 901.035 C 4325.465 904.055, 4310.004 914.210, 4298.500 929.818 L 4292.500 937.958 4292.226 921.479 L 4291.952 905 4257.476 905 L 4223 905 4223 910.852 L 4223 916.705 4231.282 917.342 C 4240.559 918.055, 4249.138 920.281, 4251.427 922.570 C 4255.309 926.452, 4255.500 930.149, 4255.500 1001.500 C 4255.500 1072.851, 4255.309 1076.548, 4251.427 1080.430 C 4249.138 1082.719, 4240.559 1084.945, 4231.282 1085.658 L 4223 1086.295 4223 1092.148 L 4223 1098 4276 1098 L 4329 1098 4329 1092.150 L 4329 1086.300 4318.250 1085.703 C 4305.701 1085.006, 4297.601 1082.865, 4295.574 1079.710 C 4292.486 1074.905, 4292 1065.624, 4292 1011.426 L 4292 957.220 4296.316 951.357 C 4306.385 937.679, 4319.664 930, 4333.247 930 C 4341.582 930, 4342.959 931.840, 4344.473 945 C 4344.821 948.025, 4345.343 951.737, 4345.632 953.250 L 4346.159 956 4356.079 956 L 4366 956 4366 929.107 C 4366 904.427, 4365.856 902.157, 4364.250 901.517 C 4361.314 900.349, 4347.812 900.052, 4342.322 901.035 M 3391 910.852 L 3391 916.705 3399.348 917.347 C 3411.116 918.251, 3419.148 920.846, 3420.799 924.278 C 3423.715 930.337, 3424.107 945.836, 3423.734 1040.249 C 3423.402 1124.267, 3423.164 1136.304, 3421.716 1142.322 C 3418.434 1155.960, 3412.711 1160.434, 3398.500 1160.471 C 3382.075 1160.515, 3377.354 1154.517, 3376.090 1132 L 3375.500 1121.500 3365.250 1121.215 L 3355 1120.930 3355 1143.355 L 3355 1165.781 3362.750 1167.836 C 3376.177 1171.396, 3383.147 1172.351, 3395.500 1172.322 C 3429.992 1172.240, 3449.441 1156.480, 3457.596 1122 C 3459.223 1115.123, 3459.401 1105.795, 3459.732 1009.750 L 3460.094 905 3425.547 905 L 3391 905 3391 910.852 M 3720 926.500 L 3720 948 3729.879 948 L 3739.759 948 3740.170 935.644 C 3740.626 921.941, 3741.772 918.764, 3746.689 917.579 C 3748.235 917.206, 3769.215 916.639, 3793.310 916.318 L 3837.120 915.736 3776.060 1001.220 L 3715 1086.704 3715 1092.352 L 3715 1098 3799.500 1098 L 3884 1098 3884 1075.500 L 3884 1053 3874.151 1053 L 3864.301 1053 3863.681 1063.250 C 3862.842 1077.131, 3861.783 1080.486, 3857.728 1082.122 C 3852.950 1084.049, 3758.180 1084.717, 3759.699 1082.812 C 3760.274 1082.090, 3787.352 1044.269, 3819.872 998.765 L 3879 916.030 3879 910.515 L 3879 905 3799.500 905 L 3720 905 3720 926.500 M 4111.200 910.750 L 4111.500 916.500 4115 916.743 C 4122.167 917.242, 4133.606 919.249, 4136.786 920.567 C 4138.968 921.471, 4140.648 923.200, 4141.786 925.714 C 4143.354 929.177, 4143.500 935.644, 4143.500 1001.500 C 4143.500 1071.500, 4143.444 1073.611, 4141.500 1077.500 C 4139.096 1082.308, 4135.747 1083.664, 4122.500 1085.196 C 4110.249 1086.613, 4111 1086.139, 4111 1092.469 L 4111 1098 4162 1098 L 4213 1098 4213 1092 L 4213 1086 4208.750 1085.992 C 4202.270 1085.981, 4191.986 1084.087, 4187.409 1082.063 C 4180.442 1078.981, 4180.675 1082.036, 4180.267 988.250 L 4179.904 905 4145.402 905 L 4110.900 905 4111.200 910.750 M 3596.484 996.444 C 3592.075 997.130, 3586.675 998.265, 3584.484 998.967 C 3577.108 1001.329, 3566.772 1007.352, 3561.828 1012.168 C 3550.170 1023.523, 3546.328 1043.936, 3552.945 1059.371 C 3555.899 1066.263, 3563.878 1074.208, 3571.278 1077.626 C 3576.703 1080.132, 3578.653 1080.495, 3586.500 1080.464 C 3596.856 1080.422, 3602.900 1078.572, 3614.668 1071.838 L 3622 1067.643 3622 1031.322 L 3622 995 3613.250 995.099 C 3608.438 995.153, 3600.893 995.759, 3596.484 996.444 M 4011 996.168 C 3996.226 998.261, 3980.834 1005.703, 3973.460 1014.318 C 3959.545 1030.574, 3960.119 1056.061, 3974.724 1070.459 C 3984.966 1080.557, 3998.848 1083.458, 4013.500 1078.562 C 4017.900 1077.092, 4024.762 1074.034, 4028.750 1071.766 L 4036 1067.643 4036 1031.322 L 4036 995 4026.750 995.123 C 4021.662 995.191, 4014.575 995.661, 4011 996.168" stroke="none" fill="#cc2484" fill-rule="evenodd"/><path d="M 599 1.122 C 549.716 4.163, 496.803 13.870, 449 28.640 C 435.868 32.697, 409.748 42.012, 409 42.904 C 408.725 43.232, 407.600 43.657, 406.500 43.850 C 405.400 44.042, 404.275 44.492, 404 44.850 C 403.725 45.207, 402.600 45.657, 401.500 45.850 C 400.400 46.042, 399.275 46.492, 399 46.850 C 398.725 47.207, 397.825 47.633, 397 47.795 C 393.782 48.429, 378 55.468, 378 56.269 C 378 56.736, 377.608 56.876, 377.130 56.580 C 375.919 55.832, 336 75.673, 336 77.023 C 336 77.625, 335.586 77.862, 335.081 77.550 C 334.575 77.237, 333.552 77.548, 332.807 78.241 C 332.062 78.933, 330.788 79.637, 329.976 79.805 C 329.164 79.973, 327.938 80.846, 327.250 81.746 C 326.563 82.646, 326 83.060, 326 82.665 C 326 82.271, 324.650 82.647, 323 83.500 C 321.350 84.353, 320 85.415, 320 85.859 C 320 86.303, 319.417 86.667, 318.705 86.667 C 316.844 86.667, 303 95.046, 303 96.173 C 303 96.693, 302.578 96.857, 302.061 96.538 C 301.545 96.219, 300.758 96.610, 300.311 97.408 C 299.521 98.820, 299.140 99, 296.941 99 C 296.359 99, 296.203 99.520, 296.595 100.155 C 297.029 100.856, 296.871 101.038, 296.191 100.618 C 295.576 100.238, 294.157 100.843, 293.036 101.964 C 291.916 103.084, 291 103.770, 291 103.490 C 291 103.209, 288.525 104.623, 285.500 106.631 C 282.475 108.640, 280 110.696, 280 111.201 C 280 111.705, 279.596 111.868, 279.102 111.563 C 278.608 111.257, 276.785 112.332, 275.052 113.951 C 273.319 115.570, 271.592 116.806, 271.214 116.697 C 270.837 116.589, 270.369 117.400, 270.176 118.500 C 269.402 122.902, 258.366 155.503, 252.235 171.500 C 248.651 180.850, 242.176 196.357, 237.846 205.959 C 230.360 222.560, 230.136 223.260, 233.302 220.192 C 235.133 218.417, 236.884 217.217, 237.192 217.526 C 237.501 217.834, 241.049 214.580, 245.077 210.293 C 249.104 206.007, 251.797 203.400, 251.061 204.500 C 250.324 205.600, 251.600 204.588, 253.897 202.250 C 256.193 199.912, 258.473 198, 258.963 198 C 259.453 198, 261.294 196.313, 263.053 194.250 C 264.812 192.188, 265.938 191.175, 265.557 192 C 265.175 192.825, 266.536 191.700, 268.582 189.500 C 270.628 187.300, 271.978 186.175, 271.583 187 C 271.187 187.825, 272.303 186.925, 274.063 185 C 275.824 183.075, 276.949 182.175, 276.563 183 C 276.178 183.825, 277.303 182.925, 279.063 181 C 280.824 179.075, 281.945 178.175, 281.556 179 C 281.166 179.825, 281.833 179.375, 283.037 178 C 284.240 176.625, 285.661 175.500, 286.193 175.500 C 286.726 175.500, 287.800 174.626, 288.581 173.559 C 289.361 172.491, 290.015 172.041, 290.033 172.559 C 290.052 173.076, 290.952 172.438, 292.033 171.139 C 293.115 169.841, 294.010 169.166, 294.022 169.639 C 294.034 170.113, 294.974 169.375, 296.109 168 C 297.245 166.625, 297.832 166.175, 297.415 167 C 296.561 168.689, 300.287 165.868, 303.337 162.518 C 304.347 161.408, 304.875 161.175, 304.511 162 C 304.146 162.825, 304.782 162.438, 305.924 161.139 C 307.066 159.841, 308 159.060, 308 159.403 C 308 159.747, 309.800 158.837, 312 157.381 C 314.200 155.925, 316 154.344, 316 153.867 C 316 153.390, 316.337 153.110, 316.750 153.244 C 317.890 153.614, 325 148.974, 325 147.859 C 325 147.322, 325.434 147.150, 325.964 147.477 C 326.493 147.805, 327.843 147.157, 328.964 146.036 C 330.084 144.916, 331.014 144.337, 331.032 144.750 C 331.049 145.162, 331.613 144.825, 332.285 144 C 332.957 143.175, 333.959 142.424, 334.512 142.331 C 335.993 142.081, 358.396 128.784, 359.112 127.730 C 359.448 127.234, 360.034 126.912, 360.413 127.014 C 360.792 127.116, 367.267 124.040, 374.801 120.180 C 475.443 68.614, 590.518 47.815, 704.500 60.592 C 867.269 78.837, 1017.360 167.510, 1112.696 301.753 C 1202.302 427.929, 1237.990 583.177, 1212.404 735.500 C 1197.137 826.387, 1159.790 913.333, 1104.159 987.500 C 1088.103 1008.905, 1071.749 1027.458, 1048.605 1050.522 C 1016.561 1082.455, 994.089 1100.903, 958.500 1124.492 C 810.121 1222.840, 623.983 1247.346, 454.585 1190.834 C 251.760 1123.170, 100.895 947.292, 65.048 736.711 C 59.268 702.762, 57.010 675.378, 57.004 639.187 C 57 611.593, 58.047 593.126, 61.006 568.594 C 62.062 559.846, 62.710 552.339, 62.446 551.913 C 62.183 551.487, 62.365 550.892, 62.852 550.591 C 63.618 550.118, 65.161 541.609, 65.589 535.500 C 65.666 534.400, 65.984 532.825, 66.294 532 C 67.557 528.649, 71.889 505.629, 71.404 504.844 C 71.117 504.380, 71.281 504, 71.769 504 C 72.857 504, 75.227 494.176, 74.444 492.910 C 74.135 492.409, 74.411 492, 75.058 492 C 75.741 492, 76.014 491.162, 75.710 490 C 75.423 488.900, 75.643 488, 76.201 488 C 76.758 488, 76.960 487.339, 76.651 486.532 C 76.341 485.725, 76.472 484.826, 76.943 484.535 C 77.728 484.050, 80.439 474.829, 80.482 472.500 C 80.492 471.950, 80.804 471.269, 81.175 470.987 C 81.546 470.705, 81.996 469.130, 82.175 467.487 C 82.354 465.844, 82.767 464.275, 83.094 464 C 84.194 463.074, 88.958 447.741, 88.417 446.866 C 88.123 446.390, 88.407 446, 89.048 446 C 89.689 446, 89.966 445.354, 89.663 444.565 C 89.360 443.775, 89.557 442.981, 90.101 442.800 C 90.644 442.619, 91.165 441.465, 91.257 440.235 C 91.350 439.006, 91.744 438, 92.133 438 C 92.859 438, 94.533 432.099, 94.190 430.750 C 94.086 430.337, 94.487 430, 95.083 430 C 95.679 430, 95.981 429.442, 95.753 428.759 C 95.525 428.076, 95.958 426.899, 96.714 426.143 C 97.471 425.387, 97.921 424.262, 97.714 423.643 C 97.508 423.024, 97.964 421.893, 98.727 421.130 C 99.490 420.367, 99.878 419.125, 99.589 418.371 C 99.300 417.617, 99.525 417, 100.090 417 C 100.656 417, 100.864 416.588, 100.553 416.085 C 100.242 415.582, 100.377 415.020, 100.853 414.835 C 102.136 414.339, 106.074 404.928, 105.433 403.891 C 105.130 403.401, 105.275 403, 105.756 403 C 106.413 403, 109.873 397.094, 110.024 395.716 C 110.036 395.597, 103.174 402.207, 94.774 410.405 C 70.082 434.500, 25.255 471.894, 22.847 470.405 C 22.307 470.072, 21.968 470.407, 22.093 471.150 C 22.218 471.892, 21.780 473.815, 21.120 475.422 C 20.459 477.030, 20.148 478.942, 20.428 479.672 C 20.708 480.403, 20.449 481, 19.852 481 C 19.255 481, 18.996 481.878, 19.277 482.952 C 19.558 484.026, 19.455 485.038, 19.049 485.202 C 18.040 485.609, 12.821 508.901, 13.494 509.991 C 13.790 510.470, 13.554 511.158, 12.968 511.519 C 12.383 511.881, 11.995 512.925, 12.106 513.839 C 12.217 514.752, 12.032 516.175, 11.695 517 C 10.919 518.904, 8.881 530.553, 9.130 531.665 C 9.233 532.124, 9.042 533.175, 8.704 534 C 8.367 534.825, 7.429 540.450, 6.619 546.500 C 5.021 558.431, 5.008 558.548, 4.576 564.617 C 4.415 566.881, 4.022 569.155, 3.704 569.671 C 3.385 570.186, 2.843 575.084, 2.499 580.554 C 2.155 586.024, 1.417 596.575, 0.858 604 C -0.491 621.936, 0.450 676.331, 2.467 697 C 19.139 867.793, 98.586 1018.937, 229.405 1128.736 C 338.237 1220.081, 473.807 1272.091, 615.611 1276.900 C 723.941 1280.574, 826.053 1258.665, 921 1211.376 C 949.170 1197.346, 966.489 1187.413, 990.500 1171.520 C 1072.538 1117.216, 1140.982 1044.830, 1190.975 959.500 C 1201.538 941.471, 1221.079 901.974, 1229.566 881.500 C 1247.961 837.124, 1263.288 781.315, 1270.485 732.500 C 1275.672 697.322, 1276.488 684.502, 1276.469 638.500 C 1276.452 596.100, 1276.036 587.953, 1272.411 559 C 1258.625 448.886, 1215.861 343.621, 1148.812 254.760 C 1110.143 203.512, 1059.805 154.591, 1007.748 117.668 C 898.422 40.124, 769.026 -0.704, 635.289 0.145 C 622.755 0.224, 606.425 0.664, 599 1.122 M 609.151 93.079 C 532.906 97.221, 458.688 117.139, 390.750 151.694 C 381.538 156.379, 374 160.540, 374 160.940 C 374 161.340, 373.437 161.667, 372.748 161.667 C 370.951 161.667, 344 178.001, 344 179.090 C 344 179.591, 343.647 179.888, 343.215 179.750 C 342.011 179.366, 329 188.093, 329 189.284 C 329 189.861, 328.710 190.043, 328.355 189.688 C 327.571 188.905, 318.415 195.286, 315.140 198.897 C 313.842 200.329, 313.087 200.825, 313.463 200 C 313.838 199.175, 312.938 199.850, 311.463 201.500 C 309.987 203.150, 309.087 203.825, 309.463 203 C 309.838 202.175, 308.938 202.850, 307.463 204.500 C 305.987 206.150, 305.147 206.825, 305.594 206 C 306.620 204.110, 296.481 212.231, 292.618 216.394 C 291.033 218.102, 290.051 218.825, 290.436 218 C 290.820 217.175, 289.231 218.525, 286.903 221 C 284.576 223.475, 283.257 224.600, 283.971 223.500 C 284.686 222.400, 283.629 223.188, 281.622 225.250 C 279.615 227.313, 277.642 228.989, 277.237 228.975 C 276.831 228.961, 273.398 232.223, 269.608 236.225 C 265.817 240.226, 263.524 242.487, 264.513 241.250 C 268.409 236.373, 264.898 239.584, 251.986 252.706 C 244.569 260.245, 239.625 265.581, 241 264.564 C 242.375 263.547, 240.226 265.817, 236.225 269.608 C 232.223 273.398, 228.961 276.831, 228.975 277.237 C 228.989 277.642, 227.312 279.594, 225.250 281.576 C 223.187 283.557, 222.175 284.845, 223 284.438 C 223.825 284.031, 222.700 285.372, 220.500 287.418 C 218.300 289.464, 217.175 290.836, 218 290.467 C 218.825 290.098, 218.033 291.003, 216.240 292.478 C 214.448 293.953, 213.206 295.525, 213.482 295.971 C 213.757 296.416, 212.823 297.541, 211.405 298.471 C 209.987 299.400, 209.062 300.395, 209.349 300.683 C 209.637 300.970, 208.664 302.321, 207.186 303.684 C 205.709 305.046, 205.175 305.851, 206 305.471 C 206.825 305.091, 206.150 305.987, 204.500 307.463 C 202.850 308.938, 202.175 309.838, 203 309.463 C 203.825 309.087, 203.150 309.987, 201.500 311.463 C 199.850 312.938, 199.175 313.838, 200 313.463 C 200.825 313.087, 200.150 313.987, 198.500 315.463 C 196.850 316.938, 196.175 317.848, 197 317.486 C 197.825 317.123, 197.375 317.755, 196 318.891 C 194.625 320.026, 193.887 320.966, 194.361 320.978 C 194.834 320.990, 194.159 321.934, 192.861 323.076 C 191.562 324.218, 191.175 324.854, 192 324.489 C 192.825 324.125, 192.560 324.653, 191.411 325.663 C 188.794 327.965, 184.604 334, 185.623 334 C 186.041 334, 185.509 334.661, 184.441 335.468 C 183.374 336.276, 182.924 336.951, 183.441 336.968 C 183.959 336.986, 183.509 337.661, 182.441 338.468 C 181.374 339.276, 180.816 339.951, 181.202 339.968 C 181.588 339.986, 180.797 341.196, 179.442 342.657 C 178.088 344.118, 177.172 345.505, 177.407 345.740 C 177.641 345.975, 176.954 347.046, 175.880 348.120 C 174.806 349.194, 174.166 350.459, 174.458 350.932 C 174.750 351.404, 174.288 352.059, 173.431 352.388 C 172.574 352.717, 172.153 353.439, 172.496 353.993 C 172.838 354.547, 172.615 355, 172 355 C 171.385 355, 171.131 355.403, 171.435 355.895 C 171.740 356.388, 171.288 357.059, 170.431 357.388 C 169.574 357.717, 169.153 358.439, 169.496 358.993 C 169.838 359.547, 169.615 360, 169 360 C 168.385 360, 168.160 360.450, 168.500 361 C 168.840 361.550, 168.653 362, 168.085 362 C 166.691 362, 163.896 367.543, 164.790 368.534 C 165.180 368.966, 164.990 369.029, 164.366 368.673 C 163.283 368.054, 160.241 373.606, 160.762 375.250 C 160.893 375.663, 160.556 376, 160.013 376 C 158.759 376, 151.882 389.549, 152.714 390.381 C 153.055 390.721, 152.782 391, 152.108 391 C 151.434 391, 151.160 391.450, 151.500 392 C 151.840 392.550, 151.615 393, 151 393 C 150.385 393, 150.160 393.450, 150.500 394 C 150.840 394.550, 150.615 395, 150 395 C 149.385 395, 149.160 395.450, 149.500 396 C 149.840 396.550, 149.615 397, 149 397 C 148.385 397, 148.160 397.450, 148.500 398 C 148.840 398.550, 148.615 399, 148 399 C 147.385 399, 147.160 399.450, 147.500 400 C 147.840 400.550, 147.672 401, 147.126 401 C 146.132 401, 144.430 404.843, 144.802 406.250 C 144.911 406.662, 144.605 407, 144.121 407 C 143.141 407, 140.667 412.449, 140.667 414.609 C 140.667 415.374, 140.364 416, 139.994 416 C 138.940 416, 136.909 421.043, 137.546 422.075 C 137.861 422.584, 137.714 423, 137.220 423 C 135.999 423, 133.833 427.921, 134.546 429.075 C 134.861 429.584, 134.615 430, 134 430 C 133.385 430, 133.160 430.450, 133.500 431 C 133.840 431.550, 133.714 432, 133.219 432 C 132.288 432, 129.319 439.925, 129.754 441.250 C 129.889 441.663, 129.502 442, 128.893 442 C 128.284 442, 128.045 442.675, 128.362 443.500 C 128.678 444.325, 128.545 445, 128.066 445 C 126.942 445, 124.854 450.954, 125.571 452.115 C 125.872 452.602, 125.593 453, 124.952 453 C 124.311 453, 124.034 453.646, 124.337 454.435 C 124.640 455.225, 124.443 456.019, 123.899 456.200 C 123.356 456.381, 122.835 457.535, 122.743 458.765 C 122.650 459.994, 122.172 461, 121.680 461 C 121.188 461, 121.045 461.675, 121.362 462.500 C 121.678 463.325, 121.453 464, 120.862 464 C 120.270 464, 120.045 464.675, 120.362 465.500 C 120.678 466.325, 120.453 467, 119.862 467 C 119.270 467, 119.045 467.675, 119.362 468.500 C 119.678 469.325, 119.551 470, 119.080 470 C 118.233 470, 116.498 476.330, 116.683 478.750 C 116.735 479.437, 116.330 480, 115.782 480 C 115.234 480, 115.045 480.675, 115.362 481.500 C 115.678 482.325, 115.586 483, 115.158 483 C 114.427 483, 111.808 491.677, 111.531 495.018 C 111.462 495.852, 111.130 496.981, 110.792 497.527 C 109.678 499.330, 106.877 511.211, 107.435 511.769 C 107.736 512.070, 107.581 512.807, 107.091 513.408 C 104.979 515.994, 98.350 552.929, 95.587 577.500 C 87.874 646.096, 92.624 708.250, 111.274 782.756 L 112.339 787.011 197.838 786.756 L 283.337 786.500 382.419 593.137 C 451.286 458.739, 482.872 398.069, 486 394.181 C 488.475 391.105, 493.875 386.302, 498 383.507 C 521.936 367.287, 552.674 370.322, 573.004 390.913 C 580.460 398.463, 570.435 379.472, 678 589.816 C 713.475 659.188, 742.725 715.948, 743 715.951 C 743.275 715.953, 748.027 707.078, 753.560 696.228 C 849.414 508.248, 905.703 399.528, 909.815 394.424 C 915.602 387.241, 927.151 379.251, 936.500 375.962 L 943.500 373.500 1029.842 373 L 1116.185 372.500 1106.342 356.247 C 1036.610 241.099, 926.568 155.251, 798.500 116.089 C 737.885 97.554, 672.669 89.629, 609.151 93.079 M 2863.576 107.424 C 2856.486 110.409, 2848.874 117.498, 2845.240 124.500 C 2841.494 131.719, 2840.933 144.178, 2843.989 152.285 C 2846.858 159.896, 2855.242 168.989, 2862.822 172.712 C 2867.683 175.099, 2869.723 175.500, 2877 175.500 C 2884.238 175.500, 2886.327 175.094, 2891.071 172.764 C 2898.691 169.022, 2905.684 161.861, 2909.396 154 C 2912.037 148.406, 2912.461 146.385, 2912.436 139.500 C 2912.400 129.295, 2909.368 122.529, 2901.494 115.082 C 2893.993 107.989, 2888.554 105.720, 2878 105.282 C 2870.696 104.979, 2868.666 105.280, 2863.576 107.424 M 3436 105.878 C 3426.932 108.853, 3418.729 115.780, 3414.284 124.216 C 3411.751 129.024, 3411.500 130.446, 3411.500 140 C 3411.500 149.480, 3411.763 150.998, 3414.203 155.624 C 3417.845 162.528, 3425.306 169.780, 3431.998 172.919 C 3436.562 175.060, 3438.950 175.500, 3446 175.500 C 3453.252 175.500, 3455.324 175.096, 3460.109 172.745 C 3470.932 167.430, 3479.981 154.988, 3481.493 143.341 C 3482.299 137.135, 3480.159 127.792, 3476.667 122.272 C 3473.272 116.905, 3465.641 110.175, 3460.176 107.728 C 3455.117 105.463, 3440.642 104.355, 3436 105.878 M 3708.564 282.150 C 3616.992 290.215, 3545.531 360.131, 3528.317 458.500 C 3526.928 466.441, 3526.561 474.471, 3526.535 497.500 C 3526.505 523.650, 3526.732 527.778, 3528.847 539.500 C 3536.866 583.942, 3556.326 623.402, 3584.970 653.302 C 3612.086 681.607, 3642.965 699.662, 3679.500 708.576 C 3709.520 715.901, 3748.480 715.901, 3778.500 708.576 C 3850.591 690.987, 3907.235 632.963, 3926.474 557 C 3939.951 503.784, 3934.351 443.814, 3911.487 396.500 C 3894.486 361.319, 3871.475 334.684, 3840 313.756 C 3802.589 288.881, 3756.896 277.893, 3708.564 282.150 M 3157.252 286.999 C 3125.175 290.377, 3099.435 301.851, 3078.498 322.106 C 3053.617 346.176, 3043.515 373.546, 3046.088 409.918 C 3047.982 436.694, 3057.400 458.070, 3072.846 470.652 C 3092.721 486.842, 3129.223 500.379, 3183 511.503 C 3222.125 519.596, 3255.113 529.136, 3272.586 537.414 C 3289.991 545.659, 3299.138 558.032, 3302.587 578 C 3306.844 602.635, 3299.477 625.115, 3281.724 641.664 C 3270.363 652.254, 3258.038 659.358, 3241.415 664.899 C 3224.535 670.525, 3216.949 671.504, 3190.500 671.465 C 3169.510 671.435, 3165.222 671.152, 3156.312 669.209 C 3129.140 663.284, 3110.228 653.183, 3092.887 635.336 C 3075.657 617.600, 3065.901 595.040, 3064.325 569.282 L 3063.696 559 3043.348 559 L 3023 559 3023 630.500 L 3023 702 3043.483 702 L 3063.966 702 3064.233 676.485 L 3064.500 650.971 3069.756 657.864 C 3080.606 672.093, 3097.952 685.984, 3114.117 693.389 C 3138.147 704.397, 3163.766 708.740, 3198.500 707.696 C 3232.659 706.669, 3257.472 700.915, 3282.343 688.254 C 3327.293 665.370, 3349.624 625.381, 3345.101 575.868 C 3343.562 559.023, 3341.119 549.716, 3334.952 537.206 C 3328.406 523.929, 3319.012 514.062, 3304.920 505.665 C 3280.131 490.894, 3251.506 481.339, 3199.500 470.477 C 3157.966 461.802, 3125.136 452.639, 3111.451 445.901 C 3096.538 438.560, 3088.632 424.822, 3087.323 403.980 C 3085.422 373.681, 3104.038 343.913, 3132.226 332.178 C 3148.776 325.288, 3177.448 322.857, 3198.615 326.548 C 3228.101 331.690, 3253.704 347.457, 3268.869 369.813 C 3279.352 385.268, 3284.827 400.653, 3287.528 422.250 L 3288.123 427 3307.561 427 L 3327 427 3327 359.500 L 3327 292 3307.500 292 L 3288 292 3288 316 C 3288 329.200, 3287.642 340, 3287.205 340 C 3286.769 340, 3284.709 337.769, 3282.629 335.041 C 3277.073 327.755, 3262.227 313.969, 3254.167 308.611 C 3239.304 298.730, 3220.553 291.557, 3201.530 288.474 C 3190.038 286.612, 3167.926 285.875, 3157.252 286.999 M 4185 286.654 C 4142.668 290.686, 4096.314 311.745, 4051.920 347.112 L 4042 355.015 4042 323.508 L 4042 292 3981.500 292 L 3921 292 3921 312 L 3921 332 3959 332 L 3997 332 3997 497 L 3997 662 3959 662 L 3921 662 3921 682 L 3921 702 4015 702 L 4109 702 4109 682 L 4109 662 4075.500 662 L 4042 662 4042 531.537 L 4042 401.073 4050.750 393.415 C 4086.608 362.030, 4128.840 339.132, 4166.189 330.825 C 4179.833 327.791, 4203.978 327.547, 4214 330.342 C 4237.352 336.855, 4252.385 353.391, 4258.236 379 C 4260.397 388.458, 4260.408 389.100, 4260.740 525.250 L 4261.074 662 4224.537 662 L 4188 662 4188 682 L 4188 702 4280 702 L 4372 702 4372 682 L 4372 662 4339.532 662 L 4307.065 662 4306.740 518.750 C 4306.420 377.341, 4306.389 375.384, 4304.316 366.500 C 4296.845 334.475, 4279.566 312.215, 4251.500 298.459 C 4245.345 295.443, 4236.315 291.994, 4231 290.630 C 4216.952 287.026, 4198.152 285.401, 4185 286.654 M 2374 312 L 2374 332 2407.821 332 L 2441.643 332 2513.713 519.750 L 2585.783 707.500 2607.111 707.500 L 2628.438 707.500 2697.469 519.772 L 2766.500 332.045 2816.750 332.022 L 2867 332 2867 497 L 2867 662 2831 662 L 2795 662 2795 682 L 2795 702 2889 702 L 2983 702 2983 682 L 2983 662 2948 662 L 2913 662 2913 477 L 2913 292 2789.500 292 L 2666 292 2666 311.985 L 2666 331.969 2694.334 332.235 L 2722.668 332.500 2677.827 454.500 C 2632.707 577.257, 2621.705 608.785, 2611.973 643.211 C 2609.063 653.502, 2606.304 661.688, 2605.841 661.402 C 2605.379 661.116, 2605 660.083, 2605 659.107 C 2605 655.711, 2596.819 627.355, 2589.534 605.500 C 2585.500 593.400, 2561.389 527.700, 2535.953 459.500 C 2510.518 391.300, 2489.495 334.712, 2489.237 333.750 C 2488.797 332.114, 2490.569 332, 2516.383 332 L 2544 332 2544 312 L 2544 292 2459 292 L 2374 292 2374 312 M 3364 312 L 3364 332 3399.500 332 L 3435 332 3435 497 L 3435 662 3399.500 662 L 3364 662 3364 682 L 3364 702 3458.021 702 L 3552.042 702 3551.771 682.250 L 3551.500 662.500 3516.750 662.237 L 3482 661.974 3482 476.987 L 3482 292 3423 292 L 3364 292 3364 312 M 3708 324.019 C 3674.522 328.610, 3645.260 343.589, 3621.149 368.478 C 3595.707 394.742, 3580.066 428.372, 3574.398 469 C 3572.262 484.315, 3572.287 511.861, 3574.452 527.394 C 3584.988 603.001, 3634.580 658.534, 3701.849 670.056 C 3717.511 672.739, 3740.640 672.711, 3756.549 669.992 C 3824.049 658.452, 3872.967 604.184, 3884.629 527.904 C 3886.989 512.468, 3886.995 483.627, 3884.640 468 C 3880.149 438.188, 3870.277 412.203, 3854.297 388.133 C 3846.423 376.273, 3826.244 356.189, 3814.108 348.132 C 3797.853 337.342, 3780.621 330.141, 3760.782 325.849 C 3750.206 323.561, 3719.185 322.485, 3708 324.019 M 1015.536 490.974 L 990.571 491.500 891.536 684.824 C 834.460 796.239, 790.961 880.020, 788.868 882.566 C 776.078 898.127, 754.776 906.846, 736.274 904.094 C 721.252 901.860, 710.455 896.369, 700.652 885.979 C 693.166 878.043, 699.396 889.811, 605.513 706.250 C 564.936 626.913, 531.458 562.006, 531.118 562.013 C 530.778 562.020, 494.275 632.768, 450 719.231 C 405.725 805.694, 367.630 878.931, 365.344 881.981 C 358.509 891.097, 346.862 898.757, 333.661 902.814 C 329.165 904.196, 317.774 904.445, 245.250 904.743 C 199.462 904.932, 162 905.430, 162 905.850 C 162 906.270, 165.505 912.438, 169.790 919.557 C 194.216 960.141, 221.703 994.788, 256.619 1029 C 290.352 1062.052, 320.883 1085.616, 361.500 1109.943 C 377.621 1119.600, 415.928 1138.419, 434.914 1146.010 C 520.814 1180.357, 614.730 1192.405, 707 1180.914 C 926.013 1153.639, 1107.478 996.111, 1165.953 782.500 C 1173.636 754.435, 1179.850 719.784, 1183.169 686.500 C 1184.898 669.164, 1184.891 608.726, 1183.158 591.500 C 1180.020 560.312, 1175.815 535.460, 1168.816 506.750 L 1164.734 490 1102.617 490.224 C 1068.453 490.347, 1029.266 490.684, 1015.536 490.974 M 517.500 706.418 C 495.839 711.449, 479.196 727.429, 473.418 748.743 C 471.403 756.174, 471.432 770.796, 473.475 778.419 C 477.082 791.868, 487.893 806.006, 500.136 813.282 C 523.046 826.898, 551.603 823.393, 570.414 804.658 C 582.170 792.949, 587.953 779.224, 587.985 762.960 C 588.034 737.942, 570.922 715.155, 546.280 707.422 C 539.357 705.250, 524.727 704.740, 517.500 706.418" stroke="none" fill="#861857" fill-rule="evenodd"/></svg>