<svg xmlns="http://www.w3.org/2000/svg" version="1.1" xmlns:xlink="http://www.w3.org/1999/xlink" xmlns:svgjs="http://svgjs.dev/svgjs" width="3840" height="2160" preserveAspectRatio="none" viewBox="0 0 3840 2160">
    <g mask="url(&quot;#SvgjsMask1427&quot;)" fill="none">
        <rect width="3840" height="2160" x="0" y="0" fill="url(&quot;#SvgjsLinearGradient1428&quot;)"></rect>
        <path d="M1337.526,260.902C1422.457,261.694,1492.173,197.801,1530.448,121.979C1565.036,53.46,1552.585,-24.968,1515.854,-92.362C1477.13,-163.412,1418.348,-228.067,1337.526,-231.992C1250.754,-236.206,1167.309,-187.935,1126.445,-111.272C1087.626,-38.446,1110.02,46.656,1150.733,118.44C1192.138,191.444,1253.602,260.12,1337.526,260.902" fill="rgba(130, 72, 95, 0.59)" class="triangle-float2"></path>
        <path d="M195.797,1351.246C294.201,1348.329,374.902,1282.892,424.846,1198.055C475.663,1111.735,500.082,1005.796,450.353,918.845C400.34,831.399,296.534,797.973,195.797,797.565C94.212,797.154,-9.327,830.121,-62.352,916.77C-117.482,1006.858,-111.991,1121.567,-58.041,1212.367C-5.237,1301.238,92.468,1354.309,195.797,1351.246" fill="rgba(130, 72, 95, 0.59)" class="triangle-float2"></path>
        <path d="M987.613,2297.348C1104.409,2289.053,1163.773,2169.576,1221.372,2067.633C1277.564,1968.18,1347.216,1856.884,1293.409,1756.121C1237.734,1651.861,1105.513,1621.551,987.613,1629.879C884.129,1637.189,803.743,1706.812,748.485,1794.612C688.226,1890.359,639.686,2003.329,688.28,2105.492C742.841,2220.199,860.91,2306.346,987.613,2297.348" fill="rgba(130, 72, 95, 0.59)" class="triangle-float2"></path>
        <path d="M2624.84 244.85 a554.42 554.42 0 1 0 1108.84 0 a554.42 554.42 0 1 0 -1108.84 0z" fill="rgba(130, 72, 95, 0.59)" class="triangle-float3"></path>
        <path d="M3162.745,2505.829C3315.782,2500.999,3465.343,2440.414,3543.229,2308.591C3622.387,2174.615,3614.269,2007.919,3536.601,1873.073C3458.789,1737.978,3318.43,1656.235,3162.745,1648.007C2989.89,1638.872,2804.633,1682.381,2713.55,1829.575C2618.61,1983.003,2638.432,2183.702,2738.262,2333.994C2828.786,2470.276,2999.218,2510.99,3162.745,2505.829" fill="rgba(130, 72, 95, 0.59)" class="triangle-float2"></path>
        <path d="M1740.03 1582.56 a685.38 685.38 0 1 0 1370.76 0 a685.38 685.38 0 1 0 -1370.76 0z" fill="rgba(130, 72, 95, 0.59)" class="triangle-float1"></path>
        <path d="M1080.887,2000.091C1184.414,2001.381,1271.109,1933.962,1326.715,1846.626C1387.701,1750.84,1428.774,1634.707,1378.28,1532.998C1322.927,1421.503,1205.366,1351.564,1080.887,1351.464C956.244,1351.364,836.722,1420.208,782.665,1532.519C733.945,1633.743,785.037,1745.916,845.447,1840.63C900.077,1926.283,979.303,1998.825,1080.887,2000.091" fill="rgba(130, 72, 95, 0.59)" class="triangle-float2"></path>
        <path d="M1593.18 452.95 a413.61 413.61 0 1 0 827.22 0 a413.61 413.61 0 1 0 -827.22 0z" fill="rgba(130, 72, 95, 0.59)" class="triangle-float2"></path>
        <path d="M2088.46 1789.73 a407.88 407.88 0 1 0 815.76 0 a407.88 407.88 0 1 0 -815.76 0z" fill="rgba(130, 72, 95, 0.59)" class="triangle-float3"></path>
    </g>
    <defs>
        <mask id="SvgjsMask1427">
            <rect width="3840" height="2160" fill="#ffffff"></rect>
        </mask>
        <linearGradient x1="10.94%" y1="-19.44%" x2="89.06%" y2="119.44%" gradientUnits="userSpaceOnUse" id="SvgjsLinearGradient1428">
            <stop stop-color="rgba(255, 255, 255, 1)" offset="0"></stop>
            <stop stop-color="rgba(167, 9, 95, 1)" offset="1"></stop>
        </linearGradient>
        <style>
            @keyframes float1 {
                    0%{transform: translate(0, 0)}
                    50%{transform: translate(-10px, 0)}
                    100%{transform: translate(0, 0)}
                }

                .triangle-float1 {
                    animation: float1 5s infinite;
                }

                @keyframes float2 {
                    0%{transform: translate(0, 0)}
                    50%{transform: translate(-5px, -5px)}
                    100%{transform: translate(0, 0)}
                }

                .triangle-float2 {
                    animation: float2 4s infinite;
                }

                @keyframes float3 {
                    0%{transform: translate(0, 0)}
                    50%{transform: translate(0, -10px)}
                    100%{transform: translate(0, 0)}
                }

                .triangle-float3 {
                    animation: float3 6s infinite;
                }
        </style>
    </defs>
</svg>