<svg xmlns="http://www.w3.org/2000/svg" version="1.1" xmlns:xlink="http://www.w3.org/1999/xlink" xmlns:svgjs="http://svgjs.dev/svgjs" width="3840" height="2160" preserveAspectRatio="none" viewBox="0 0 3840 2160">
    <g mask="url(&quot;#SvgjsMask2307&quot;)" fill="none">
        <rect width="3840" height="2160" x="0" y="0" fill="url(&quot;#SvgjsLinearGradient2308&quot;)"></rect>
        <path d="M2754.045,972.226C2878.703,971.225,3011.004,941.565,3074.575,834.33C3139.131,725.434,3106.193,592.107,3045.126,481.217C2981.305,365.327,2886.281,256.451,2754.045,252.293C2616.073,247.955,2496.994,341.48,2429.436,461.859C2363.392,579.541,2352.048,725.684,2424.471,839.552C2492.59,946.652,2627.121,973.246,2754.045,972.226" fill="rgba(147, 1, 101, 0.81)" class="triangle-float1"></path>
        <path d="M1890.21 1629.39 a576.69 576.69 0 1 0 1153.38 0 a576.69 576.69 0 1 0 -1153.38 0z" fill="rgba(147, 1, 101, 0.81)" class="triangle-float2"></path>
        <path d="M3074.13 112.05 a490.81 490.81 0 1 0 981.62 0 a490.81 490.81 0 1 0 -981.62 0z" fill="rgba(147, 1, 101, 0.81)" class="triangle-float1"></path>
        <path d="M-326.06 1764.67 a392.7 392.7 0 1 0 785.4 0 a392.7 392.7 0 1 0 -785.4 0z" fill="rgba(147, 1, 101, 0.81)" class="triangle-float3"></path>
        <path d="M548.674,1953.266C706.976,1960.774,873.122,1910.734,954.846,1774.951C1038.683,1635.658,1007.789,1463.064,929.459,1320.601C847.652,1171.815,718.449,1033.751,548.674,1036.223C381.799,1038.653,260.056,1181.548,186.625,1331.419C122.442,1462.414,130.773,1613.283,204.169,1739.347C277.064,1864.55,403.96,1946.402,548.674,1953.266" fill="rgba(147, 1, 101, 0.81)" class="triangle-float1"></path>
        <path d="M2020 1869.23 a710.2 710.2 0 1 0 1420.4 0 a710.2 710.2 0 1 0 -1420.4 0z" fill="rgba(147, 1, 101, 0.81)" class="triangle-float2"></path>
        <path d="M3205.96 165.92 a494.88 494.88 0 1 0 989.76 0 a494.88 494.88 0 1 0 -989.76 0z" fill="rgba(147, 1, 101, 0.81)" class="triangle-float1"></path>
        <path d="M2158.069,2702.098C2378.388,2707.813,2566.2,2559.085,2677.031,2368.587C2788.58,2176.854,2832.499,1935.439,2712.735,1748.728C2599.691,1572.493,2367.275,1551.132,2158.069,1559.528C1967.11,1567.191,1774.494,1626.877,1675.5,1790.353C1573.249,1959.206,1591.396,2168.351,1683.739,2342.819C1783.187,2530.711,1945.553,2696.585,2158.069,2702.098" fill="rgba(147, 1, 101, 0.81)" class="triangle-float3"></path>
    </g>
    <defs>
        <mask id="SvgjsMask2307">
            <rect width="3840" height="2160" fill="#ffffff"></rect>
        </mask>
        <linearGradient x1="10.94%" y1="-19.44%" x2="89.06%" y2="119.44%" gradientUnits="userSpaceOnUse" id="SvgjsLinearGradient2308">
            <stop stop-color="rgba(255, 255, 255, 1)" offset="0"></stop>
            <stop stop-color="rgba(117, 0, 75, 0.16)" offset="1"></stop>
        </linearGradient>
        <style>
            @keyframes float1 {
                    0%{transform: translate(0, 0)}
                    50%{transform: translate(-50px, 0)}
                    100%{transform: translate(0, 0)}
                }

                .triangle-float1 {
                    animation: float1 20s infinite;
                }

                @keyframes float2 {
                    0%{transform: translate(0, 0)}
                    50%{transform: translate(-25px, -25px)}
                    100%{transform: translate(0, 0)}
                }

                .triangle-float2 {
                    animation: float2 15s infinite;
                }

                @keyframes float3 {
                    0%{transform: translate(0, 0)}
                    50%{transform: translate(0, -50px)}
                    100%{transform: translate(0, 0)}
                }

                .triangle-float3 {
                    animation: float3 25s infinite;
                }
        </style>
    </defs>
</svg>