<svg xmlns="http://www.w3.org/2000/svg" version="1.1" xmlns:xlink="http://www.w3.org/1999/xlink" xmlns:svgjs="http://svgjs.dev/svgjs" width="3840" height="2160" preserveAspectRatio="none" viewBox="0 0 3840 2160">
    <g mask="url(&quot;#SvgjsMask1060&quot;)" fill="none">
        <rect width="3840" height="2160" x="0" y="0" fill="url(&quot;#SvgjsLinearGradient1061&quot;)"></rect>
        <path d="M3303.244,2472.538C3507.336,2486.443,3740.551,2490.571,3855.511,2321.364C3980.551,2137.319,3942.203,1890.515,3828.685,1699.148C3717.598,1511.879,3520.873,1383.476,3303.244,1390.36C3095.791,1396.922,2925.865,1545.347,2832.385,1730.661C2747.978,1897.989,2767.132,2095.822,2867.56,2254.054C2960.871,2401.072,3129.517,2460.702,3303.244,2472.538" fill="rgba(130, 72, 95, 0.59)" class="triangle-float1"></path>
        <path d="M3782.633,1949.724C3995.974,1960.902,4236.841,1959.723,4356.895,1783.013C4488.068,1589.936,4471.721,1322.329,4339.615,1129.889C4221.046,957.168,3992.088,942.058,3782.633,946.479C3583.606,950.68,3368.938,982.827,3264.942,1152.574C3157.328,1328.226,3191.729,1555.084,3303.925,1727.845C3406.593,1885.936,3594.388,1939.861,3782.633,1949.724" fill="rgba(130, 72, 95, 0.59)" class="triangle-float1"></path>
        <path d="M823.9 1872.01 a392.5 392.5 0 1 0 785 0 a392.5 392.5 0 1 0 -785 0z" fill="rgba(130, 72, 95, 0.59)" class="triangle-float2"></path>
        <path d="M1785.77 793.89 a372.14 372.14 0 1 0 744.28 0 a372.14 372.14 0 1 0 -744.28 0z" fill="rgba(130, 72, 95, 0.59)" class="triangle-float2"></path>
        <path d="M1238.9,1200.528C1314.501,1206.337,1397.315,1194.616,1439.671,1131.725C1486.262,1062.546,1487.639,968.393,1442.454,898.288C1400.258,832.821,1316.568,814.395,1238.9,820.228C1171.678,825.276,1114.253,866.037,1082.206,925.343C1051.774,981.661,1053.621,1048.865,1085.296,1104.493C1117.321,1160.734,1174.37,1195.569,1238.9,1200.528" fill="rgba(130, 72, 95, 0.59)" class="triangle-float1"></path>
        <path d="M2820.898,902.901C2987.353,902.37,3134.471,809.662,3224.066,669.375C3322.094,515.885,3373.349,327.508,3292.648,164.241C3203.239,-16.644,3022.617,-151.063,2820.898,-146.282C2625.579,-141.653,2473.475,10.848,2386.353,185.722C2308.771,341.448,2323.092,523.162,2413.251,671.961C2499.991,815.118,2653.514,903.435,2820.898,902.901" fill="rgba(130, 72, 95, 0.59)" class="triangle-float2"></path>
        <path d="M3564.501,1066.041C3679.849,1067.346,3747.871,950.112,3803.713,849.174C3857.096,752.68,3903.505,642.528,3853.045,544.474C3799.097,439.642,3682.396,385.272,3564.501,384.336C3444.864,383.386,3321.46,432.84,3267.908,539.827C3218.136,639.262,3279.885,746.996,3334.484,843.865C3390.583,943.396,3450.256,1064.748,3564.501,1066.041" fill="rgba(130, 72, 95, 0.59)" class="triangle-float1"></path>
        <path d="M474.35 896.83 a570.69 570.69 0 1 0 1141.38 0 a570.69 570.69 0 1 0 -1141.38 0z" fill="rgba(130, 72, 95, 0.59)" class="triangle-float1"></path>
        <path d="M3721.93,1429.808C3926.335,1436.44,4160.029,1419.915,4263.133,1243.294C4366.737,1065.816,4265.414,854.34,4161.293,677.164C4059.07,503.217,3923.512,330.838,3721.93,322.364C3508.463,313.39,3315.775,449.704,3213.56,637.323C3115.579,817.17,3127.737,1037.658,3238.32,1210.043C3340.79,1369.781,3532.25,1423.654,3721.93,1429.808" fill="rgba(130, 72, 95, 0.59)" class="triangle-float1"></path>
    </g>
    <defs>
        <mask id="SvgjsMask1060">
            <rect width="3840" height="2160" fill="#ffffff"></rect>
        </mask>
        <linearGradient x1="10.94%" y1="-19.44%" x2="89.06%" y2="119.44%" gradientUnits="userSpaceOnUse" id="SvgjsLinearGradient1061">
            <stop stop-color="rgba(0, 0, 0, 1)" offset="0"></stop>
            <stop stop-color="rgba(121, 0, 65, 1)" offset="1"></stop>
        </linearGradient>
        <style>
            @keyframes float1 {
                    0%{transform: translate(0, 0)}
                    50%{transform: translate(-10px, 0)}
                    100%{transform: translate(0, 0)}
                }

                .triangle-float1 {
                    animation: float1 5s infinite;
                }

                @keyframes float2 {
                    0%{transform: translate(0, 0)}
                    50%{transform: translate(-5px, -5px)}
                    100%{transform: translate(0, 0)}
                }

                .triangle-float2 {
                    animation: float2 4s infinite;
                }

                @keyframes float3 {
                    0%{transform: translate(0, 0)}
                    50%{transform: translate(0, -10px)}
                    100%{transform: translate(0, 0)}
                }

                .triangle-float3 {
                    animation: float3 6s infinite;
                }
        </style>
    </defs>
</svg>