<svg xmlns="http://www.w3.org/2000/svg" version="1.1" xmlns:xlink="http://www.w3.org/1999/xlink" xmlns:svgjs="http://svgjs.dev/svgjs" width="3840" height="2160" preserveAspectRatio="none" viewBox="0 0 3840 2160">
    <g mask="url(&quot;#SvgjsMask2301&quot;)" fill="none">
        <rect width="3840" height="2160" x="0" y="0" fill="url(&quot;#SvgjsLinearGradient2302&quot;)"></rect>
        <path d="M779.751,295.999C884.389,299.952,1000.398,293.982,1059.092,207.265C1123.504,112.1,1120.327,-18.152,1057.512,-114.378C999.432,-203.35,886,-221.251,779.751,-220.657C674.874,-220.071,561.304,-201.218,507.318,-111.301C452.146,-19.408,475.133,98.363,534.724,187.454C587.955,267.037,684.074,292.384,779.751,295.999" fill="rgba(147, 1, 101, 0.81)" class="triangle-float2"></path>
        <path d="M1613.607,1589.346C1759.231,1595.076,1918.795,1573.981,1997.461,1451.299C2081.04,1320.955,2056.342,1152.856,1979.797,1018.26C1902.282,881.96,1770.371,772.965,1613.607,776.336C1461.382,779.61,1343.731,898.237,1273.716,1033.444C1209.709,1157.049,1206.121,1304.265,1278.731,1423.02C1348.414,1536.989,1480.126,1584.094,1613.607,1589.346" fill="rgba(147, 1, 101, 0.81)" class="triangle-float3"></path>
        <path d="M3761.602,2121.103C3884.056,2117.236,3983.904,2037.82,4049.01,1934.036C4119.491,1821.683,4170.783,1684.901,4108.798,1567.647C4043.707,1444.516,3900.812,1386.048,3761.602,1390.357C3629.748,1394.438,3515.038,1473.425,3449.739,1588.047C3385.138,1701.445,3375.032,1840.592,3440.935,1953.238C3506.234,2064.851,3632.355,2125.184,3761.602,2121.103" fill="rgba(147, 1, 101, 0.81)" class="triangle-float1"></path>
        <path d="M1493.473,2766.329C1676.7,2774.756,1873.091,2739.127,1974.195,2586.087C2084.452,2419.193,2078.938,2201.449,1982.387,2026.268C1882.333,1844.73,1700.758,1713.978,1493.473,1713.867C1286.015,1713.756,1095.381,1839.667,1003.652,2025.744C920.638,2194.143,980.12,2388.533,1083.692,2545.129C1175.47,2683.892,1327.281,2758.685,1493.473,2766.329" fill="rgba(147, 1, 101, 0.81)" class="triangle-float2"></path>
        <path d="M3561.495,1550.843C3645.713,1547.08,3711.636,1485.484,3751.839,1411.386C3789.957,1341.13,3796.644,1257.993,3758.493,1187.754C3718.543,1114.202,3645.196,1061.181,3561.495,1060.949C3477.433,1060.716,3405.986,1114.658,3362.599,1186.658C3317.554,1261.411,3297.38,1353.228,3339.213,1429.825C3382.553,1509.181,3471.165,1554.88,3561.495,1550.843" fill="rgba(147, 1, 101, 0.81)" class="triangle-float3"></path>
        <path d="M2960.26 237.47 a440.93 440.93 0 1 0 881.86 0 a440.93 440.93 0 1 0 -881.86 0z" fill="rgba(147, 1, 101, 0.81)" class="triangle-float3"></path>
        <path d="M3231.74 833.17 a429.79 429.79 0 1 0 859.58 0 a429.79 429.79 0 1 0 -859.58 0z" fill="rgba(147, 1, 101, 0.81)" class="triangle-float3"></path>
        <path d="M3070.85 1890.02 a586.7 586.7 0 1 0 1173.4 0 a586.7 586.7 0 1 0 -1173.4 0z" fill="rgba(147, 1, 101, 0.81)" class="triangle-float1"></path>
    </g>
    <defs>
        <mask id="SvgjsMask2301">
            <rect width="3840" height="2160" fill="#ffffff"></rect>
        </mask>
        <linearGradient x1="10.94%" y1="-19.44%" x2="89.06%" y2="119.44%" gradientUnits="userSpaceOnUse" id="SvgjsLinearGradient2302">
            <stop stop-color="rgba(255, 255, 255, 1)" offset="0"></stop>
            <stop stop-color="rgba(117, 0, 75, 0.16)" offset="1"></stop>
        </linearGradient>
        <style>
            @keyframes float1 {
                    0%{transform: translate(0, 0)}
                    50%{transform: translate(-10px, 0)}
                    100%{transform: translate(0, 0)}
                }

                .triangle-float1 {
                    animation: float1 5s infinite;
                }

                @keyframes float2 {
                    0%{transform: translate(0, 0)}
                    50%{transform: translate(-5px, -5px)}
                    100%{transform: translate(0, 0)}
                }

                .triangle-float2 {
                    animation: float2 4s infinite;
                }

                @keyframes float3 {
                    0%{transform: translate(0, 0)}
                    50%{transform: translate(0, -10px)}
                    100%{transform: translate(0, 0)}
                }

                .triangle-float3 {
                    animation: float3 6s infinite;
                }
        </style>
    </defs>
</svg>